<?xml version="1.0" encoding="UTF-8" standalone="no"?><!DOCTYPE svg PUBLIC "-//W3C//DTD SVG 1.1//EN" "http://www.w3.org/Graphics/SVG/1.1/DTD/svg11.dtd"><svg width="100%" height="100%" viewBox="0 0 700 700" version="1.1" xmlns="http://www.w3.org/2000/svg" xmlns:xlink="http://www.w3.org/1999/xlink" xml:space="preserve" xmlns:serif="http://www.serif.com/" style="fill-rule:evenodd;clip-rule:evenodd;stroke-linejoin:round;stroke-miterlimit:2;"><path id="outer" d="M700,350c0,192.004 -157.996,350 -350,350c-192.004,0 -350,-157.996 -350,-350c-0,-192.004 157.996,-350 350,-350c192.004,-0 350,157.996 350,350Z" style="fill:#1d3557;fill-rule:nonzero;"/><path id="inner" d="M529.792,321.083c-4.568,29.215 -22.909,54.523 -49.25,67.959l-38.334,-66.375c-2.876,-5.064 -8.269,-8.203 -14.093,-8.203c-2.865,0 -5.68,0.76 -8.157,2.203l-61.333,35.416c-7.776,-13.78 -11.854,-29.343 -11.833,-45.166c-0.875,-24.5 7.64,-48.433 23.791,-66.875c-15,78 53.875,81.541 28.167,24.333c-17.458,-38.75 -10,-64.375 4.167,-80.083c-15.75,40.041 57.166,68.625 32.875,-2.875c-17.167,-50.584 20.208,-90.375 20.208,-90.375c-21.667,77.666 43.667,83.583 20.375,145.5c-18.917,50.333 33.792,47.375 29.5,-2.709c11.708,7.834 31.917,52.75 23.917,87.25Zm-93.209,49.375l-11.333,-19.666c-0.79,-0.892 -1.927,-1.404 -3.118,-1.404c-2.286,0 -4.167,1.881 -4.167,4.167c-0,0.478 0.082,0.953 0.243,1.403l11.334,19.625c0.79,0.892 1.926,1.404 3.118,1.404c2.286,-0 4.167,-1.881 4.167,-4.167c-0,-0.478 -0.083,-0.953 -0.244,-1.403l0,0.041Zm-122.291,121.209c-7.688,-2.332 -15.896,-2.332 -23.584,-0l-66.666,29.166c0.309,0.74 0.469,1.533 0.469,2.335c-0,3.314 -2.728,6.041 -6.042,6.041c-1.882,0 -3.66,-0.879 -4.802,-2.376c-0.437,0.895 -1.134,1.636 -2,2.125c-0.773,0.453 -1.653,0.692 -2.549,0.692c-1.8,-0 -3.469,-0.965 -4.368,-2.525l-13.292,-23.083c-0.452,-0.773 -0.691,-1.653 -0.691,-2.549c-0,-1.8 0.965,-3.469 2.525,-4.368c0.863,-0.522 1.87,-0.755 2.875,-0.667c-0.337,-0.766 -0.511,-1.594 -0.511,-2.43c0,-3.315 2.727,-6.042 6.042,-6.042c1.906,-0 3.704,0.902 4.844,2.431l1.625,2.75c0.569,1.691 2.164,2.837 3.949,2.837c2.286,0 4.166,-1.88 4.166,-4.166c0,-1.053 -0.398,-2.067 -1.115,-2.838l-2.167,-3.75l51.333,-40.042c11.042,-7.791 11.959,-14.208 12.5,-18.708c1.787,-10.45 8.086,-19.6 17.209,-25l130.958,-76c0.926,-0.537 1.978,-0.819 3.049,-0.819c2.182,-0 4.203,1.174 5.284,3.069l44.5,77.125c1.664,2.894 0.67,6.643 -2.208,8.333l-131.25,75.792c-9.145,5.258 -20.156,6.234 -30.083,2.667Zm-126.459,117.25c10.675,-0 19.459,-8.784 19.459,-19.459c-0,-14.583 -19.459,-50 -19.459,-50c0,0 -19.416,35.292 -19.416,50c-0,0.028 -0.001,0.056 -0.001,0.084c0,10.629 8.747,19.375 19.375,19.375c0.014,-0 0.028,-0 0.042,-0Z" style="fill:#e63746;fill-rule:nonzero;"/></svg>