<?xml version="1.0" encoding="UTF-8"?> <svg xmlns="http://www.w3.org/2000/svg" viewBox="0 0 888.77 179.5"><g id="Layer_2" data-name="Layer 2"><g id="Layer_1-2" data-name="Layer 1"><path d="M184.74,141.25c-24.74,0-43.94-18.88-48.5-54.68C131,46.22,148.61,8.14,180.18,8.14h2.28C202,9.44,202,33.2,182.78,33.2h-.08a11.33,11.33,0,0,0-11.59,11.14c.08,18.82,14.66,28.24,29.25,28.24,15,0,29.94-9.77,30.27-28.64,1-31.57-34.83-42.64-62.17-42.64-49.14,0-87.22,26-87.22,87.55,0,59.56,39.38,85.6,78.44,85.6,31.24,0,62.49-16.93,72.9-46.55l-3.91-3.25C213.38,135.72,198.08,141.25,184.74,141.25Z" style="fill:#083659"></path><polygon points="885.82 11.89 882.21 21 878.53 11.89 875.57 11.89 875.57 24 878.01 24 878.01 15.58 881.12 24 883.24 24 886.34 15.55 886.34 24 888.77 24 888.77 11.89 885.82 11.89" style="fill:#083659"></polygon><polygon points="865.02 13.69 868.38 13.69 868.38 24 870.83 24 870.83 13.69 874.21 13.69 874.21 11.75 865.02 11.75 865.02 13.69" style="fill:#083659"></polygon><path d="M31.9,6.93H0V145.25c0,15.18,3.54,22,17.49,23.46,12-10.07,24.7-21.41,36.84-33.34C54.25,91.15,54,89,54,22.87,53.38,11.81,49.47,6.93,31.9,6.93Z" style="fill:#083659"></path><path d="M765.43,1.49C715.7,7,679.78,51.17,685.2,100.17c.26,2.33.63,4.62,1.06,6.89l14.9-15.89c16.93-19.23,38-40.33,63.53-43.8,17.91-2.43,35.75,4.26,44.95,20.82,15.2,28.76-5,55.83-29.74,59.19l-.95.11c-16.64,1.87-29-13.7-25.6-30.11,1-5.08-.16-10-2.67-12.5-4-3.8-8.06-5-12.75-4.35-12.37,1.68-26.35,17-34.63,26.42q-6.51,7.32-13,14.63c14.08,37.42,52.59,62,94.72,57.36,49.72-5.5,85.64-49.68,80.22-98.68S815.15-4,765.43,1.49Z" style="fill:#083659"></path><path d="M632.76,6.67h-31.9V145c0,15.18,3.54,22,17.49,23.46,11.95-10.07,24.7-21.41,36.84-33.34-.08-44.22-.3-46.4-.3-112.5C654.24,11.55,650.33,6.67,632.76,6.67Z" style="fill:#083659"></path><path d="M544.38,0C524.85,0,507,13.67,492.3,26.36c-.32-15-9.43-18.55-22.45-18.55H438V73.23L401.5,105.12V54.35c0-42-34.5-52.07-71.28-52.07-27,0-70.3,11.71-67.37,45.89C264.16,63.47,276.2,71,288.57,71c13.61,0,27.7-8.78,29.71-25.73a7.37,7.37,0,0,0-7.51-8.12h-.07c-17.9,0-21.16-24.08,6.51-27.34a30.23,30.23,0,0,1,5.2-.32c27,0,24.74,28.64,24.74,50.44C331.85,85.27,256,60.86,255,125c-.32,31.89,26,49.79,54.68,49.79a67.57,67.57,0,0,0,39.38-12.69c17.58-15,34.83-30.27,52.4-45.24,12-10.74,24.41-21.16,36.45-31.57C456.18,69.65,474.08,54,492.3,38.4c7.16-6.18,19.21-16.27,28.64-16.27a10.94,10.94,0,0,1,9.12,4.56c1.63,2.11,2,5.94.73,9.64-4.2,12,3.46,24.88,16.12,25.17h.72c18.88,0,36.78-18.23,28.32-41.33C570.74,6.83,558.05,0,544.38,0ZM347.47,152.64c-5.2,3.58-10.09,5.21-14.32,5.21-14,0-22.45-16.93-22.13-33.52,0-37.11,21.48-35.16,36.45-56Z" style="fill:#083659"></path><path d="M476,70c-4.88,0-10.41,2.28-14.65,6.19L438,96.34v49.79c0,17.25,4.56,24.09,23.76,24.09H492.3v-81C492.3,76.16,484.82,70,476,70Z" style="fill:#083659"></path></g></g></svg> 