<?xml version="1.0" encoding="UTF-8" standalone="no"?><!DOCTYPE svg PUBLIC "-//W3C//DTD SVG 1.1//EN" "http://www.w3.org/Graphics/SVG/1.1/DTD/svg11.dtd"><svg width="100%" height="100%" viewBox="0 0 1325 1273" version="1.1" xmlns="http://www.w3.org/2000/svg" xmlns:xlink="http://www.w3.org/1999/xlink" xml:space="preserve" xmlns:serif="http://www.serif.com/" style="fill-rule:evenodd;clip-rule:evenodd;stroke-linejoin:round;stroke-miterlimit:2;"><g><rect x="476.463" y="371.054" width="53.008" height="53.008" style="fill:#ffe075;fill-rule:nonzero;"/><rect x="529.5" y="371.054" width="53.008" height="53.008" style="fill:#ffe075;fill-rule:nonzero;"/><rect x="582.446" y="371.054" width="53.008" height="53.008" style="fill:#ffc707;fill-rule:nonzero;"/><rect x="635.392" y="371.054" width="53.004" height="53.008" style="fill:#ffc707;fill-rule:nonzero;"/><rect x="688.425" y="371.054" width="53.008" height="53.008" style="fill:#ffc707;fill-rule:nonzero;"/><rect x="741.463" y="371.054" width="53.008" height="53.008" style="fill:#ffc707;fill-rule:nonzero;"/><rect x="794.592" y="371.054" width="53.008" height="53.008" style="fill:#ffc707;fill-rule:nonzero;"/><rect x="105.529" y="530.079" width="53.008" height="53.008" style="fill:#ffc707;fill-rule:nonzero;"/><rect x="158.567" y="530.079" width="53.008" height="53.008" style="fill:#ffc707;fill-rule:nonzero;"/><rect x="211.513" y="530.079" width="53.008" height="53.008" style="fill:#ffc707;fill-rule:nonzero;"/><rect x="264.458" y="530.079" width="53.008" height="53.008" style="fill:#ffc707;fill-rule:nonzero;"/><rect x="317.492" y="530.079" width="53.012" height="53.008" style="fill:#ffc707;fill-rule:nonzero;"/><rect x="370.533" y="530.079" width="53.008" height="53.008" style="fill:#ffc707;fill-rule:nonzero;"/><rect x="423.658" y="530.079" width="53.013" height="53.008" style="fill:#ffc707;fill-rule:nonzero;"/><rect x="476.621" y="530.079" width="53.004" height="53.008" style="fill:#ffc707;fill-rule:nonzero;"/><rect x="529.654" y="530.079" width="53.008" height="53.008" style="fill:#ffc707;fill-rule:nonzero;"/><rect x="582.6" y="530.079" width="53.008" height="53.008" style="fill:#ffc707;fill-rule:nonzero;"/><rect x="635.546" y="530.079" width="53.008" height="53.008" style="fill:#ffc707;fill-rule:nonzero;"/><rect x="688.583" y="530.079" width="53.008" height="53.008" style="fill:#ffc707;fill-rule:nonzero;"/><rect x="741.617" y="530.079" width="53.013" height="53.008" style="fill:#ffc707;fill-rule:nonzero;"/><rect x="794.746" y="530.079" width="53.012" height="53.008" style="fill:#ffc707;fill-rule:nonzero;"/><rect x="847.304" y="530.079" width="53.008" height="53.008" style="fill:#ffc707;fill-rule:nonzero;"/><rect x="953.287" y="530.079" width="53.008" height="53.008" style="fill:#faa619;fill-rule:nonzero;"/><rect x="1006.23" y="530.079" width="53.008" height="53.008" style="fill:#faa619;fill-rule:nonzero;"/><rect x="1059.27" y="530.079" width="53.004" height="53.008" style="fill:#faa619;fill-rule:nonzero;"/><rect x="1112.31" y="530.079" width="53.004" height="53.008" style="fill:#faa619;fill-rule:nonzero;"/><rect x="158.567" y="583.087" width="53.008" height="53.004" style="fill:#ffc707;fill-rule:nonzero;"/><rect x="211.513" y="583.087" width="53.008" height="53.004" style="fill:#ffc707;fill-rule:nonzero;"/><rect x="264.458" y="583.087" width="53.008" height="53.004" style="fill:#ffc707;fill-rule:nonzero;"/><rect x="317.492" y="583.087" width="53.012" height="53.004" style="fill:#ffc707;fill-rule:nonzero;"/><rect x="370.533" y="583.087" width="53.008" height="53.004" style="fill:#ffc707;fill-rule:nonzero;"/><rect x="423.658" y="583.087" width="53.013" height="53.004" style="fill:#ffc707;fill-rule:nonzero;"/><rect x="476.621" y="583.087" width="53.004" height="53.004" style="fill:#ffc707;fill-rule:nonzero;"/><rect x="529.654" y="583.087" width="53.008" height="53.004" style="fill:#ffc707;fill-rule:nonzero;"/><rect x="582.6" y="583.087" width="53.008" height="53.004" style="fill:#ffc707;fill-rule:nonzero;"/><rect x="635.546" y="583.087" width="53.008" height="53.004" style="fill:#ffc707;fill-rule:nonzero;"/><rect x="688.583" y="583.087" width="53.008" height="53.004" style="fill:#ffc707;fill-rule:nonzero;"/><rect x="741.617" y="583.087" width="53.013" height="53.004" style="fill:#ffc707;fill-rule:nonzero;"/><rect x="794.746" y="583.087" width="53.012" height="53.004" style="fill:#ffc707;fill-rule:nonzero;"/><rect x="900.346" y="583.087" width="53.004" height="53.004" style="fill:#faa619;fill-rule:nonzero;"/><rect x="953.287" y="583.087" width="53.008" height="53.004" style="fill:#faa619;fill-rule:nonzero;"/><rect x="1006.23" y="583.087" width="53.008" height="53.004" style="fill:#faa619;fill-rule:nonzero;"/><rect x="1059.27" y="583.087" width="53.004" height="53.004" style="fill:#faa619;fill-rule:nonzero;"/><rect x="211.513" y="635.846" width="53.008" height="53.012" style="fill:#ffc707;fill-rule:nonzero;"/><rect x="264.458" y="635.846" width="53.008" height="53.012" style="fill:#ffc707;fill-rule:nonzero;"/><rect x="317.492" y="635.846" width="53.012" height="53.012" style="fill:#ffc707;fill-rule:nonzero;"/><rect x="370.533" y="635.846" width="53.008" height="53.012" style="fill:#ffc707;fill-rule:nonzero;"/><rect x="423.658" y="635.846" width="53.013" height="53.012" style="fill:#ffc707;fill-rule:nonzero;"/><rect x="476.621" y="635.846" width="53.004" height="53.012" style="fill:#ffc707;fill-rule:nonzero;"/><rect x="529.654" y="635.846" width="53.008" height="53.012" style="fill:#ffc707;fill-rule:nonzero;"/><rect x="582.6" y="635.846" width="53.008" height="53.012" style="fill:#ffc707;fill-rule:nonzero;"/><rect x="635.546" y="635.846" width="53.008" height="53.012" style="fill:#ffc707;fill-rule:nonzero;"/><rect x="688.583" y="635.846" width="53.008" height="53.012" style="fill:#ffc707;fill-rule:nonzero;"/><rect x="741.617" y="635.846" width="53.013" height="53.012" style="fill:#ffc707;fill-rule:nonzero;"/><rect x="847.304" y="635.846" width="53.008" height="53.012" style="fill:#faa619;fill-rule:nonzero;"/><rect x="900.346" y="635.846" width="53.004" height="53.012" style="fill:#faa619;fill-rule:nonzero;"/><rect x="953.287" y="635.846" width="53.008" height="53.012" style="fill:#faa619;fill-rule:nonzero;"/><rect x="1006.23" y="635.846" width="53.008" height="53.012" style="fill:#faa619;fill-rule:nonzero;"/><rect x="264.458" y="688.858" width="53.008" height="53.004" style="fill:#ffc707;fill-rule:nonzero;"/><rect x="317.492" y="688.858" width="53.012" height="53.004" style="fill:#ffc707;fill-rule:nonzero;"/><rect x="370.533" y="688.858" width="53.008" height="53.004" style="fill:#ffc707;fill-rule:nonzero;"/><rect x="423.658" y="688.858" width="53.013" height="53.004" style="fill:#ffc707;fill-rule:nonzero;"/><rect x="476.621" y="688.858" width="53.004" height="53.004" style="fill:#ffc707;fill-rule:nonzero;"/><rect x="529.654" y="688.858" width="53.008" height="53.004" style="fill:#ffc707;fill-rule:nonzero;"/><rect x="582.6" y="688.858" width="53.008" height="53.004" style="fill:#ffc707;fill-rule:nonzero;"/><rect x="635.546" y="688.858" width="53.008" height="53.004" style="fill:#ffc707;fill-rule:nonzero;"/><rect x="688.583" y="688.858" width="53.008" height="53.004" style="fill:#ffc707;fill-rule:nonzero;"/><rect x="794.746" y="688.858" width="53.012" height="53.004" style="fill:#faa619;fill-rule:nonzero;"/><rect x="847.304" y="688.858" width="53.008" height="53.004" style="fill:#faa619;fill-rule:nonzero;"/><rect x="900.346" y="688.858" width="53.004" height="53.004" style="fill:#faa619;fill-rule:nonzero;"/><rect x="953.287" y="688.858" width="53.008" height="53.004" style="fill:#faa619;fill-rule:nonzero;"/><rect x="317.492" y="741.862" width="53.012" height="53.008" style="fill:#ffc707;fill-rule:nonzero;"/><rect x="370.533" y="741.862" width="53.008" height="53.008" style="fill:#ffc707;fill-rule:nonzero;"/><rect x="423.658" y="741.862" width="53.013" height="53.008" style="fill:#ffc707;fill-rule:nonzero;"/><rect x="476.621" y="741.862" width="53.004" height="53.008" style="fill:#ffc707;fill-rule:nonzero;"/><rect x="529.654" y="741.862" width="53.008" height="53.008" style="fill:#ffc707;fill-rule:nonzero;"/><rect x="582.6" y="741.862" width="53.008" height="53.008" style="fill:#ffc707;fill-rule:nonzero;"/><rect x="635.546" y="741.862" width="53.008" height="53.008" style="fill:#ffc707;fill-rule:nonzero;"/><rect x="741.617" y="741.862" width="53.013" height="53.008" style="fill:#faa619;fill-rule:nonzero;"/><rect x="794.746" y="741.862" width="53.012" height="53.008" style="fill:#faa619;fill-rule:nonzero;"/><rect x="847.304" y="741.862" width="53.008" height="53.008" style="fill:#faa619;fill-rule:nonzero;"/><rect x="900.346" y="741.862" width="53.004" height="53.008" style="fill:#faa619;fill-rule:nonzero;"/><rect x="370.533" y="795.117" width="53.008" height="53.008" style="fill:#ffc707;fill-rule:nonzero;"/><rect x="423.658" y="795.117" width="53.013" height="53.008" style="fill:#ffc707;fill-rule:nonzero;"/><rect x="476.621" y="795.117" width="53.004" height="53.008" style="fill:#ffc707;fill-rule:nonzero;"/><rect x="529.654" y="795.117" width="53.008" height="53.008" style="fill:#ffc707;fill-rule:nonzero;"/><rect x="582.6" y="795.117" width="53.008" height="53.008" style="fill:#ffc707;fill-rule:nonzero;"/><rect x="688.583" y="795.117" width="53.008" height="53.008" style="fill:#faa619;fill-rule:nonzero;"/><rect x="741.617" y="795.117" width="53.013" height="53.008" style="fill:#faa619;fill-rule:nonzero;"/><rect x="794.746" y="795.117" width="53.012" height="53.008" style="fill:#faa619;fill-rule:nonzero;"/><rect x="847.304" y="795.117" width="53.008" height="53.008" style="fill:#faa619;fill-rule:nonzero;"/><rect x="900.346" y="795.117" width="53.004" height="53.008" style="fill:#faa619;fill-rule:nonzero;"/><rect x="370.533" y="848.375" width="53.008" height="53.004" style="fill:#ffc707;fill-rule:nonzero;"/><rect x="423.658" y="848.375" width="53.013" height="53.004" style="fill:#ffc707;fill-rule:nonzero;"/><rect x="476.621" y="848.375" width="53.004" height="53.004" style="fill:#ffc707;fill-rule:nonzero;"/><rect x="529.654" y="848.375" width="53.008" height="53.004" style="fill:#ffc707;fill-rule:nonzero;"/><rect x="635.546" y="848.375" width="53.008" height="53.004" style="fill:#faa619;fill-rule:nonzero;"/><rect x="688.583" y="848.375" width="53.008" height="53.004" style="fill:#faa619;fill-rule:nonzero;"/><rect x="741.617" y="848.375" width="53.013" height="53.004" style="fill:#faa619;fill-rule:nonzero;"/><rect x="794.746" y="848.375" width="53.012" height="53.004" style="fill:#faa619;fill-rule:nonzero;"/><rect x="847.304" y="848.375" width="53.008" height="53.004" style="fill:#faa619;fill-rule:nonzero;"/><rect x="900.346" y="848.375" width="53.004" height="53.004" style="fill:#faa619;fill-rule:nonzero;"/><rect x="953.287" y="741.862" width="53.008" height="53.008" style="fill:#faa619;fill-rule:nonzero;"/><rect x="317.738" y="901.142" width="53.012" height="53.004" style="fill:#ffc707;fill-rule:nonzero;"/><rect x="370.775" y="901.142" width="53.008" height="53.004" style="fill:#ffc707;fill-rule:nonzero;"/><rect x="423.904" y="901.142" width="53.008" height="53.004" style="fill:#ffc707;fill-rule:nonzero;"/><rect x="476.862" y="901.142" width="53.008" height="53.004" style="fill:#ffc707;fill-rule:nonzero;"/><rect x="582.846" y="901.142" width="53.008" height="53.004" style="fill:#faa619;fill-rule:nonzero;"/><rect x="635.788" y="901.142" width="53.012" height="53.004" style="fill:#faa619;fill-rule:nonzero;"/><rect x="688.825" y="901.142" width="53.008" height="53.004" style="fill:#faa619;fill-rule:nonzero;"/><rect x="741.863" y="901.142" width="53.008" height="53.004" style="fill:#faa619;fill-rule:nonzero;"/><rect x="794.992" y="901.142" width="53.008" height="53.004" style="fill:#faa619;fill-rule:nonzero;"/><rect x="847.55" y="901.142" width="53.008" height="53.004" style="fill:#faa619;fill-rule:nonzero;"/><rect x="900.588" y="901.142" width="53.008" height="53.004" style="fill:#faa619;fill-rule:nonzero;"/><rect x="953.533" y="901.142" width="53.008" height="53.004" style="fill:#faa619;fill-rule:nonzero;"/><rect x="317.738" y="953.9" width="53.012" height="53.008" style="fill:#ffc707;fill-rule:nonzero;"/><rect x="370.775" y="953.9" width="53.008" height="53.008" style="fill:#ffc707;fill-rule:nonzero;"/><rect x="423.904" y="953.9" width="53.008" height="53.008" style="fill:#ffc707;fill-rule:nonzero;"/><rect x="529.9" y="953.9" width="53.008" height="53.008" style="fill:#faa619;fill-rule:nonzero;"/><rect x="582.846" y="953.9" width="53.008" height="53.008" style="fill:#faa619;fill-rule:nonzero;"/><rect x="635.788" y="953.9" width="53.012" height="53.008" style="fill:#faa619;fill-rule:nonzero;"/><rect x="688.825" y="953.9" width="53.008" height="53.008" style="fill:#faa619;fill-rule:nonzero;"/><rect x="741.863" y="953.9" width="53.008" height="53.008" style="fill:#faa619;fill-rule:nonzero;"/><rect x="794.992" y="953.9" width="53.008" height="53.008" style="fill:#faa619;fill-rule:nonzero;"/><rect x="847.55" y="953.9" width="53.008" height="53.008" style="fill:#faa619;fill-rule:nonzero;"/><rect x="900.588" y="953.9" width="53.008" height="53.008" style="fill:#faa619;fill-rule:nonzero;"/><rect x="953.533" y="953.9" width="53.008" height="53.008" style="fill:#faa619;fill-rule:nonzero;"/><rect x="317.738" y="1006.91" width="53.012" height="53.008" style="fill:#ffc707;fill-rule:nonzero;"/><rect x="370.775" y="1006.91" width="53.008" height="53.008" style="fill:#ffc707;fill-rule:nonzero;"/><rect x="476.862" y="1006.91" width="53.008" height="53.008" style="fill:#faa619;fill-rule:nonzero;"/><rect x="529.9" y="1006.91" width="53.008" height="53.008" style="fill:#faa619;fill-rule:nonzero;"/><rect x="582.846" y="1006.91" width="53.008" height="53.008" style="fill:#faa619;fill-rule:nonzero;"/><rect x="635.788" y="1006.91" width="53.012" height="53.008" style="fill:#faa619;fill-rule:nonzero;"/><rect x="688.825" y="1006.91" width="53.008" height="53.008" style="fill:#faa619;fill-rule:nonzero;"/><rect x="741.863" y="1006.91" width="53.008" height="55.708" style="fill:#faa619;fill-rule:nonzero;"/><rect x="794.992" y="1006.91" width="53.008" height="53.008" style="fill:#faa619;fill-rule:nonzero;"/><rect x="847.55" y="1006.91" width="53.008" height="53.008" style="fill:#faa619;fill-rule:nonzero;"/><rect x="900.588" y="1006.91" width="53.008" height="53.008" style="fill:#faa619;fill-rule:nonzero;"/><rect x="953.533" y="1006.91" width="53.008" height="53.008" style="fill:#faa619;fill-rule:nonzero;"/><rect x="1006.23" y="688.858" width="53.008" height="53.004" style="fill:#faa619;fill-rule:nonzero;"/><rect x="264.458" y="1060.34" width="53.008" height="53.008" style="fill:#ffc707;fill-rule:nonzero;"/><rect x="317.492" y="1060.34" width="53.012" height="53.008" style="fill:#ffc707;fill-rule:nonzero;"/><rect x="423.658" y="1060.34" width="53.013" height="53.008" style="fill:#faa619;fill-rule:nonzero;"/><rect x="476.621" y="1060.34" width="53.004" height="53.008" style="fill:#faa619;fill-rule:nonzero;"/><rect x="529.654" y="1060.34" width="53.008" height="53.008" style="fill:#faa619;fill-rule:nonzero;"/><rect x="794.746" y="1060.34" width="53.012" height="53.008" style="fill:#faa619;fill-rule:nonzero;"/><rect x="847.304" y="1060.34" width="53.008" height="53.008" style="fill:#faa619;fill-rule:nonzero;"/><rect x="900.346" y="1060.34" width="53.004" height="53.008" style="fill:#faa619;fill-rule:nonzero;"/><rect x="953.287" y="1060.34" width="53.008" height="53.008" style="fill:#faa619;fill-rule:nonzero;"/><rect x="1006.23" y="1060.34" width="53.008" height="53.008" style="fill:#faa619;fill-rule:nonzero;"/><rect x="264.458" y="1113.35" width="53.008" height="53.008" style="fill:#ffc707;fill-rule:nonzero;"/><rect x="370.533" y="1113.35" width="53.008" height="53.008" style="fill:#faa619;fill-rule:nonzero;"/><rect x="423.658" y="1113.35" width="53.013" height="53.008" style="fill:#faa619;fill-rule:nonzero;"/><rect x="847.304" y="1113.35" width="53.008" height="53.008" style="fill:#faa619;fill-rule:nonzero;"/><rect x="900.346" y="1113.35" width="53.004" height="53.008" style="fill:#faa619;fill-rule:nonzero;"/><rect x="953.287" y="1113.35" width="53.008" height="53.008" style="fill:#faa619;fill-rule:nonzero;"/><rect x="1006.23" y="1113.35" width="53.008" height="53.008" style="fill:#faa619;fill-rule:nonzero;"/><rect x="317.492" y="1165.99" width="53.012" height="53.004" style="fill:#ffc707;fill-rule:nonzero;"/><rect x="953.287" y="1165.99" width="53.008" height="53.004" style="fill:#faa619;fill-rule:nonzero;"/><rect x="1006.23" y="1165.99" width="53.008" height="53.004" style="fill:#faa619;fill-rule:nonzero;"/><rect x="1059.27" y="635.846" width="53.004" height="53.012" style="fill:#faa619;fill-rule:nonzero;"/><rect x="1112.31" y="583.087" width="53.004" height="53.004" style="fill:#faa619;fill-rule:nonzero;"/><rect x="1165.43" y="530.079" width="53.008" height="53.008" style="fill:#faa619;fill-rule:nonzero;"/><rect x="105.529" y="477.071" width="53.008" height="53.008" style="fill:#ffe075;fill-rule:nonzero;"/><rect x="52.525" y="477.071" width="53.004" height="53.008" style="fill:#ffe075;fill-rule:nonzero;"/><rect x="158.567" y="477.071" width="53.008" height="53.008" style="fill:#ffe075;fill-rule:nonzero;"/><rect x="211.513" y="477.071" width="53.008" height="53.008" style="fill:#ffc707;fill-rule:nonzero;"/><rect x="264.458" y="477.071" width="53.008" height="53.008" style="fill:#ffe075;fill-rule:nonzero;"/><rect x="317.492" y="477.071" width="53.012" height="53.008" style="fill:#ffe075;fill-rule:nonzero;"/><rect x="370.533" y="477.071" width="53.008" height="53.008" style="fill:#ffe075;fill-rule:nonzero;"/><rect x="423.658" y="477.071" width="53.013" height="53.008" style="fill:#ffe075;fill-rule:nonzero;"/><rect x="476.621" y="477.071" width="53.004" height="53.008" style="fill:#ffe075;fill-rule:nonzero;"/><rect x="529.654" y="477.071" width="53.008" height="53.008" style="fill:#ffc707;fill-rule:nonzero;"/><rect x="582.6" y="477.071" width="53.008" height="53.008" style="fill:#ffc707;fill-rule:nonzero;"/><rect x="635.546" y="477.071" width="53.008" height="53.008" style="fill:#ffc707;fill-rule:nonzero;"/><rect x="688.583" y="477.071" width="53.008" height="53.008" style="fill:#ffc707;fill-rule:nonzero;"/><rect x="741.617" y="477.071" width="53.013" height="53.008" style="fill:#ffc707;fill-rule:nonzero;"/><rect x="794.746" y="477.071" width="53.012" height="53.008" style="fill:#ffc707;fill-rule:nonzero;"/><rect x="847.304" y="477.071" width="53.008" height="53.008" style="fill:#ffc707;fill-rule:nonzero;"/><rect x="900.346" y="477.071" width="53.004" height="53.008" style="fill:#ffc707;fill-rule:nonzero;"/><rect x="1006.23" y="477.071" width="53.008" height="53.008" style="fill:#faa619;fill-rule:nonzero;"/><rect x="1059.27" y="477.071" width="53.004" height="53.008" style="fill:#faa619;fill-rule:nonzero;"/><rect x="1112.31" y="477.071" width="53.004" height="53.008" style="fill:#faa619;fill-rule:nonzero;"/><rect x="1165.43" y="477.071" width="53.008" height="53.008" style="fill:#faa619;fill-rule:nonzero;"/><rect x="1218.48" y="477.071" width="53.008" height="53.008" style="fill:#faa619;fill-rule:nonzero;"/><rect x="105.529" y="424.062" width="53.008" height="53.008" style="fill:#ffe075;fill-rule:nonzero;"/><rect x="52.525" y="424.062" width="53.004" height="53.008" style="fill:#ffe075;fill-rule:nonzero;"/><rect x="158.567" y="424.062" width="53.008" height="53.008" style="fill:#ffe075;fill-rule:nonzero;"/><rect x="211.513" y="424.062" width="53.008" height="53.008" style="fill:#ffe075;fill-rule:nonzero;"/><rect x="264.458" y="424.062" width="53.008" height="53.008" style="fill:#ffe075;fill-rule:nonzero;"/><rect x="317.492" y="424.062" width="53.012" height="53.008" style="fill:#ffe075;fill-rule:nonzero;"/><rect x="370.533" y="424.062" width="53.008" height="53.008" style="fill:#ffe075;fill-rule:nonzero;"/><rect x="423.658" y="424.062" width="53.013" height="53.008" style="fill:#ffe075;fill-rule:nonzero;"/><rect x="476.621" y="424.062" width="53.004" height="53.008" style="fill:#ffe075;fill-rule:nonzero;"/><rect x="529.654" y="424.062" width="53.008" height="53.008" style="fill:#ffe075;fill-rule:nonzero;"/><rect x="582.6" y="424.062" width="53.008" height="53.008" style="fill:#ffc707;fill-rule:nonzero;"/><rect x="635.546" y="424.062" width="53.008" height="53.008" style="fill:#ffc707;fill-rule:nonzero;"/><rect x="688.583" y="424.062" width="53.008" height="53.008" style="fill:#ffc707;fill-rule:nonzero;"/><rect x="741.617" y="424.062" width="53.013" height="53.008" style="fill:#ffc707;fill-rule:nonzero;"/><rect x="794.746" y="424.062" width="53.012" height="53.008" style="fill:#ffc707;fill-rule:nonzero;"/><rect x="847.304" y="424.062" width="53.008" height="53.008" style="fill:#ffc707;fill-rule:nonzero;"/><rect x="900.346" y="424.062" width="53.004" height="53.008" style="fill:#ffc707;fill-rule:nonzero;"/><rect x="953.287" y="424.062" width="53.008" height="53.008" style="fill:#ffc707;fill-rule:nonzero;"/><rect x="900.346" y="530.079" width="53.004" height="53.008" style="fill:#faa619;fill-rule:nonzero;"/><rect x="847.304" y="583.087" width="53.008" height="53.004" style="fill:#faa619;fill-rule:nonzero;"/><rect x="794.746" y="635.846" width="53.012" height="53.012" style="fill:#faa619;fill-rule:nonzero;"/><rect x="741.617" y="688.858" width="53.013" height="53.004" style="fill:#faa619;fill-rule:nonzero;"/><rect x="688.583" y="741.862" width="53.008" height="53.008" style="fill:#faa619;fill-rule:nonzero;"/><rect x="635.546" y="795.117" width="53.008" height="53.008" style="fill:#faa619;fill-rule:nonzero;"/><rect x="582.6" y="848.375" width="53.008" height="53.004" style="fill:#faa619;fill-rule:nonzero;"/><rect x="529.9" y="901.142" width="53.008" height="53.004" style="fill:#faa619;fill-rule:nonzero;"/><rect x="476.862" y="953.9" width="53.008" height="53.008" style="fill:#faa619;fill-rule:nonzero;"/><rect x="423.904" y="1006.91" width="53.008" height="53.008" style="fill:#faa619;fill-rule:nonzero;"/><rect x="370.533" y="1060.34" width="53.008" height="53.008" style="fill:#faa619;fill-rule:nonzero;"/><rect x="317.492" y="1113.35" width="53.012" height="53.008" style="fill:#faa619;fill-rule:nonzero;"/><rect x="264.458" y="1165.99" width="53.008" height="53.004" style="fill:#faa619;fill-rule:nonzero;"/><rect x="953.287" y="477.071" width="53.008" height="53.008" style="fill:#faa619;fill-rule:nonzero;"/><rect x="1006.23" y="424.062" width="53.008" height="53.008" style="fill:#faa619;fill-rule:nonzero;"/><rect x="1059.27" y="424.062" width="53.004" height="53.008" style="fill:#faa619;fill-rule:nonzero;"/><rect x="1112.31" y="424.062" width="53.004" height="53.008" style="fill:#faa619;fill-rule:nonzero;"/><rect x="1165.43" y="424.062" width="53.008" height="53.008" style="fill:#faa619;fill-rule:nonzero;"/><rect x="1218.48" y="424.062" width="53.008" height="53.008" style="fill:#faa619;fill-rule:nonzero;"/><rect x="476.463" y="317.8" width="53.008" height="53.008" style="fill:#ffe075;fill-rule:nonzero;"/><rect x="529.5" y="317.8" width="53.008" height="53.008" style="fill:#ffe075;fill-rule:nonzero;"/><rect x="582.446" y="317.8" width="53.008" height="53.008" style="fill:#ffe075;fill-rule:nonzero;"/><rect x="635.392" y="317.8" width="53.004" height="53.008" style="fill:#ffc707;fill-rule:nonzero;"/><rect x="688.425" y="317.8" width="53.008" height="53.008" style="fill:#ffc707;fill-rule:nonzero;"/><rect x="741.463" y="317.8" width="53.008" height="53.008" style="fill:#ffc707;fill-rule:nonzero;"/><rect x="794.592" y="317.8" width="53.008" height="53.008" style="fill:#ffc707;fill-rule:nonzero;"/><rect x="476.463" y="264.546" width="53.008" height="53.008" style="fill:#ffc707;fill-rule:nonzero;"/><rect x="529.5" y="264.546" width="53.008" height="53.008" style="fill:#ffe075;fill-rule:nonzero;"/><rect x="582.446" y="264.546" width="53.008" height="53.008" style="fill:#ffe075;fill-rule:nonzero;"/><rect x="635.392" y="264.546" width="53.004" height="53.008" style="fill:#ffe075;fill-rule:nonzero;"/><rect x="688.425" y="264.546" width="53.008" height="53.008" style="fill:#ffc707;fill-rule:nonzero;"/><rect x="741.463" y="264.546" width="53.008" height="53.008" style="fill:#ffc707;fill-rule:nonzero;"/><rect x="794.592" y="264.546" width="53.008" height="53.008" style="fill:#ffc707;fill-rule:nonzero;"/><rect x="529.5" y="211.287" width="53.008" height="53.012" style="fill:#ffe075;fill-rule:nonzero;"/><rect x="582.446" y="211.287" width="53.008" height="53.012" style="fill:#ffe075;fill-rule:nonzero;"/><rect x="635.392" y="211.287" width="53.004" height="53.012" style="fill:#ffe075;fill-rule:nonzero;"/><rect x="688.425" y="211.287" width="53.008" height="53.012" style="fill:#ffc707;fill-rule:nonzero;"/><rect x="741.463" y="211.287" width="53.008" height="53.012" style="fill:#ffc707;fill-rule:nonzero;"/><rect x="582.446" y="158.037" width="53.008" height="53.004" style="fill:#ffe075;fill-rule:nonzero;"/><rect x="635.392" y="158.037" width="53.004" height="53.004" style="fill:#ffe075;fill-rule:nonzero;"/><rect x="688.425" y="158.037" width="53.008" height="53.004" style="fill:#ffe075;fill-rule:nonzero;"/><rect x="582.446" y="104.779" width="53.008" height="53.008" style="fill:#ffe075;fill-rule:nonzero;"/><rect x="635.392" y="104.779" width="53.004" height="53.008" style="fill:#ffe075;fill-rule:nonzero;"/><rect x="688.425" y="104.779" width="53.008" height="53.008" style="fill:#ffe075;fill-rule:nonzero;"/><rect x="635.392" y="51.525" width="53.004" height="53.008" style="fill:#ffe075;fill-rule:nonzero;"/><rect x="662.108" y="0" width="53.008" height="53.008" style="fill:#e98f1a;fill-rule:nonzero;"/><rect x="688.613" y="53.008" width="53.008" height="53.008" style="fill:#e98f1a;fill-rule:nonzero;"/><rect x="715.117" y="106.017" width="53.008" height="53.008" style="fill:#e98f1a;fill-rule:nonzero;"/><rect x="741.621" y="159.025" width="53.008" height="53.008" style="fill:#e98f1a;fill-rule:nonzero;"/><rect x="768.125" y="212.033" width="53.008" height="53.008" style="fill:#e98f1a;fill-rule:nonzero;"/><rect x="794.629" y="265.042" width="53.008" height="53.004" style="fill:#e98f1a;fill-rule:nonzero;"/><rect x="821.133" y="318.046" width="53.008" height="53.008" style="fill:#e98f1a;fill-rule:nonzero;"/><rect x="953.346" y="795.112" width="53.008" height="53.008" style="fill:#d1681a;fill-rule:nonzero;"/><rect x="1006.35" y="742.104" width="53.008" height="53.008" style="fill:#d1681a;fill-rule:nonzero;"/><rect x="1059.36" y="689.096" width="53.008" height="53.008" style="fill:#d1681a;fill-rule:nonzero;"/><rect x="1112.37" y="636.087" width="53.008" height="53.008" style="fill:#d1681a;fill-rule:nonzero;"/><rect x="1165.38" y="583.083" width="53.008" height="53.004" style="fill:#d1681a;fill-rule:nonzero;"/><rect x="1218.39" y="530.075" width="53.004" height="53.008" style="fill:#d1681a;fill-rule:nonzero;"/><rect x="1271.39" y="477.062" width="53.013" height="53.012" style="fill:#d1681a;fill-rule:nonzero;"/><rect x="953.346" y="848.121" width="53.008" height="53.008" style="fill:#d1681a;fill-rule:nonzero;"/><rect x="1006.72" y="901.312" width="53.008" height="53.008" style="fill:#d1681a;fill-rule:nonzero;"/><rect x="1006.72" y="954.229" width="53.008" height="53.008" style="fill:#d1681a;fill-rule:nonzero;"/><rect x="1006.72" y="1007.27" width="53.008" height="53.008" style="fill:#d1681a;fill-rule:nonzero;"/><rect x="1058.75" y="1060.34" width="53.008" height="53.008" style="fill:#d1681a;fill-rule:nonzero;"/><rect x="1058.75" y="1113.25" width="53.008" height="53.008" style="fill:#d1681a;fill-rule:nonzero;"/><rect x="1058.75" y="1166.3" width="53.008" height="53.008" style="fill:#d1681a;fill-rule:nonzero;"/><rect x="1006.18" y="1219.12" width="53.004" height="53.008" style="fill:#d1681a;fill-rule:nonzero;"/><rect x="953.654" y="1166.6" width="53.008" height="53.008" style="fill:#d1681a;fill-rule:nonzero;"/><rect x="900.646" y="1140.59" width="53.008" height="53.004" style="fill:#d1681a;fill-rule:nonzero;"/><rect x="847.638" y="1114.58" width="53.008" height="53.008" style="fill:#d1681a;fill-rule:nonzero;"/><rect x="794.629" y="1088.57" width="53.008" height="53.008" style="fill:#d1681a;fill-rule:nonzero;"/><rect x="741.621" y="1062.55" width="53.008" height="53.008" style="fill:#d1681a;fill-rule:nonzero;"/><rect x="688.613" y="1036.54" width="53.008" height="53.008" style="fill:#d1681a;fill-rule:nonzero;"/><rect x="635.85" y="1014.94" width="53.008" height="53.008" style="fill:#d1681a;fill-rule:nonzero;"/><rect x="847.638" y="371.054" width="53.008" height="53.008" style="fill:#e98f1a;fill-rule:nonzero;"/><rect x="900.554" y="371.054" width="53.008" height="53.008" style="fill:#e98f1a;fill-rule:nonzero;"/><rect x="953.471" y="371.054" width="53.008" height="53.008" style="fill:#e98f1a;fill-rule:nonzero;"/><rect x="1006.38" y="371.054" width="53.012" height="53.008" style="fill:#d1681a;fill-rule:nonzero;"/><rect x="1059.3" y="371.054" width="53.004" height="53.008" style="fill:#d1681a;fill-rule:nonzero;"/><rect x="1112.43" y="397.687" width="53.012" height="53.004" style="fill:#d1681a;fill-rule:nonzero;"/><rect x="1165.38" y="397.687" width="53.008" height="53.004" style="fill:#d1681a;fill-rule:nonzero;"/><rect x="1218.42" y="397.687" width="53.008" height="53.004" style="fill:#d1681a;fill-rule:nonzero;"/><rect x="1271.37" y="397.687" width="53.008" height="53.004" style="fill:#d1681a;fill-rule:nonzero;"/><rect x="1271.46" y="450.692" width="53.004" height="26.542" style="fill:#d1681a;fill-rule:nonzero;"/><rect x="609.354" y="0" width="53.004" height="53.008" style="fill:#e98f1a;fill-rule:nonzero;"/><rect x="582.846" y="53.008" width="53.013" height="53.008" style="fill:#e98f1a;fill-rule:nonzero;"/><rect x="556.346" y="106.017" width="53.008" height="53.008" style="fill:#e98f1a;fill-rule:nonzero;"/><rect x="529.842" y="159.025" width="53.004" height="53.008" style="fill:#e98f1a;fill-rule:nonzero;"/><rect x="503.337" y="212.033" width="53.008" height="53.008" style="fill:#e98f1a;fill-rule:nonzero;"/><rect x="476.833" y="265.042" width="53.008" height="53.004" style="fill:#e98f1a;fill-rule:nonzero;"/><rect x="450.329" y="318.046" width="53.008" height="53.008" style="fill:#e98f1a;fill-rule:nonzero;"/><rect x="318.113" y="795.112" width="53.012" height="53.008" style="fill:#e98f1a;fill-rule:nonzero;"/><rect x="265.108" y="742.104" width="53.004" height="53.008" style="fill:#e98f1a;fill-rule:nonzero;"/><rect x="212.1" y="689.096" width="53.008" height="53.008" style="fill:#e98f1a;fill-rule:nonzero;"/><rect x="159.092" y="636.087" width="53.008" height="53.008" style="fill:#e98f1a;fill-rule:nonzero;"/><rect x="106.083" y="583.083" width="53.008" height="53.004" style="fill:#e98f1a;fill-rule:nonzero;"/><rect x="53.075" y="530.075" width="53.008" height="53.008" style="fill:#e98f1a;fill-rule:nonzero;"/><rect x="0.067" y="477.062" width="53.008" height="53.012" style="fill:#e98f1a;fill-rule:nonzero;"/><rect x="318.113" y="848.121" width="53.012" height="53.008" style="fill:#e98f1a;fill-rule:nonzero;"/><rect x="264.742" y="901.312" width="53.004" height="53.008" style="fill:#e98f1a;fill-rule:nonzero;"/><rect x="264.742" y="954.229" width="53.004" height="53.008" style="fill:#e98f1a;fill-rule:nonzero;"/><rect x="264.742" y="1007.27" width="53.004" height="53.008" style="fill:#e98f1a;fill-rule:nonzero;"/><rect x="212.712" y="1060.34" width="53.008" height="53.008" style="fill:#e98f1a;fill-rule:nonzero;"/><rect x="212.712" y="1113.25" width="53.008" height="53.008" style="fill:#e98f1a;fill-rule:nonzero;"/><rect x="212.712" y="1166.3" width="53.008" height="53.008" style="fill:#e98f1a;fill-rule:nonzero;"/><rect x="265.292" y="1219.12" width="53" height="53.008" style="fill:#d1681a;fill-rule:nonzero;"/><rect x="317.808" y="1166.6" width="53.008" height="53.008" style="fill:#d1681a;fill-rule:nonzero;"/><rect x="370.817" y="1140.59" width="53.008" height="53.004" style="fill:#d1681a;fill-rule:nonzero;"/><rect x="423.825" y="1114.58" width="53.008" height="53.008" style="fill:#d1681a;fill-rule:nonzero;"/><rect x="476.833" y="1088.57" width="53.008" height="53.008" style="fill:#d1681a;fill-rule:nonzero;"/><rect x="529.842" y="1062.55" width="53.004" height="53.008" style="fill:#d1681a;fill-rule:nonzero;"/><rect x="582.846" y="1036.54" width="53.013" height="53.008" style="fill:#d1681a;fill-rule:nonzero;"/><rect x="423.825" y="371.054" width="53.008" height="53.008" style="fill:#e98f1a;fill-rule:nonzero;"/><rect x="370.908" y="371.054" width="53.008" height="53.008" style="fill:#e98f1a;fill-rule:nonzero;"/><rect x="317.988" y="371.054" width="53.012" height="53.008" style="fill:#e98f1a;fill-rule:nonzero;"/><rect x="265.075" y="371.054" width="53.008" height="53.008" style="fill:#e98f1a;fill-rule:nonzero;"/><rect x="212.163" y="371.054" width="53.008" height="53.008" style="fill:#e98f1a;fill-rule:nonzero;"/><rect x="159.025" y="397.687" width="53.008" height="53.004" style="fill:#e98f1a;fill-rule:nonzero;"/><rect x="106.079" y="397.687" width="53.004" height="53.004" style="fill:#e98f1a;fill-rule:nonzero;"/><rect x="53.038" y="397.687" width="53.008" height="53.004" style="fill:#e98f1a;fill-rule:nonzero;"/><rect x="0.092" y="397.687" width="53.004" height="53.004" style="fill:#e98f1a;fill-rule:nonzero;"/><rect x="0" y="450.692" width="53.008" height="26.542" style="fill:#e98f1a;fill-rule:nonzero;"/></g></svg>