<?xml version="1.0" encoding="UTF-8" standalone="no"?><!DOCTYPE svg PUBLIC "-//W3C//DTD SVG 1.1//EN" "http://www.w3.org/Graphics/SVG/1.1/DTD/svg11.dtd"><svg width="100%" height="100%" viewBox="0 0 3672 2504" version="1.1" xmlns="http://www.w3.org/2000/svg" xmlns:xlink="http://www.w3.org/1999/xlink" xml:space="preserve" xmlns:serif="http://www.serif.com/" style="fill-rule:evenodd;clip-rule:evenodd;stroke-linejoin:round;stroke-miterlimit:2;"><g><path d="M3337.62,2252.9l-83.458,-0l0,-83.442l83.458,0l-0,83.442Zm83.458,-2002.57l0,-83.442l-166.916,0l0,83.442l-83.417,0l0,-83.442l-83.458,0l-0,83.442l-83.458,0l-0,-83.442l-2169.42,0l-0,83.442l-83.459,0l0,-83.442l-333.708,0l0,83.442l-166.916,0l-0,83.442l83.458,-0l-0,83.441l-83.458,0l-0,417.213l-83.417,-0l-0,0.142l83.417,-0l-0,834.233l83.458,-0l-0,83.442l-83.458,-0l-0,417.212l83.458,0l-0,83.442l83.458,-0l0,-83.442l83.417,0l-0,83.442l-83.417,-0l0,83.441l1501.92,0l-0,-83.441l83.416,-0l0,83.441l1418.5,0l0,-250.325l-83.458,0l-0,-83.441l83.458,-0l0,-1752.05l83.417,-0l-0,-0.188l-83.417,0Z" style="fill:#efc081;fill-rule:nonzero;"/><rect x="417.25" y="2169.46" width="83.417" height="83.442" style="fill:#ed9e5d;fill-rule:nonzero;"/><rect x="3254.17" y="2169.46" width="83.457" height="83.442" style="fill:#ed9e5d;fill-rule:nonzero;"/><rect x="3421.08" y="2086.02" width="83.417" height="83.442" style="fill:#ed9e5d;fill-rule:nonzero;"/><rect x="3421.08" y="1501.97" width="83.417" height="83.396" style="fill:#ed9e5d;fill-rule:nonzero;"/><rect x="417.25" y="2169.46" width="83.417" height="83.442" style="fill:#efc081;fill-rule:nonzero;"/><rect x="3254.17" y="2169.46" width="83.457" height="83.442" style="fill:#efc081;fill-rule:nonzero;"/><rect x="3337.62" y="2002.58" width="83.458" height="83.442" style="fill:#efc081;fill-rule:nonzero;"/><rect x="83.458" y="83.442" width="83.458" height="83.442" style="fill:#ed9e5d;fill-rule:nonzero;"/><rect x="584.125" y="83.446" width="83.458" height="83.446" style="fill:#ed9e5d;fill-rule:nonzero;"/><rect x="1585.38" y="83.446" width="83.458" height="83.446" style="fill:#ed9e5d;fill-rule:nonzero;"/><rect x="2169.46" y="83.446" width="83.458" height="83.446" style="fill:#ed9e5d;fill-rule:nonzero;"/><rect x="2252.92" y="83.446" width="83.458" height="83.446" style="fill:#ed9e5d;fill-rule:nonzero;"/><rect x="3170.75" y="83.442" width="83.458" height="83.442" style="fill:#ed9e5d;fill-rule:nonzero;"/><rect x="3504.5" y="333.763" width="83.458" height="83.446" style="fill:#ed9e5d;fill-rule:nonzero;"/><rect x="3504.5" y="500.646" width="83.458" height="83.442" style="fill:#ed9e5d;fill-rule:nonzero;"/><rect x="3504.5" y="584.088" width="83.458" height="83.437" style="fill:#ed9e5d;fill-rule:nonzero;"/><rect x="3504.5" y="1501.93" width="83.458" height="83.442" style="fill:#ed9e5d;fill-rule:nonzero;"/><rect x="3504.5" y="1585.37" width="83.458" height="83.437" style="fill:#ed9e5d;fill-rule:nonzero;"/><rect x="3504.5" y="1919.13" width="83.458" height="83.442" style="fill:#ed9e5d;fill-rule:nonzero;"/><rect x="3504.5" y="2086.01" width="83.458" height="83.438" style="fill:#ed9e5d;fill-rule:nonzero;"/><rect x="3504.5" y="2169.45" width="83.458" height="83.442" style="fill:#ed9e5d;fill-rule:nonzero;"/><rect x="3337.62" y="2336.34" width="83.458" height="83.442" style="fill:#ed9e5d;fill-rule:nonzero;"/><rect x="2836.96" y="2336.34" width="83.458" height="83.442" style="fill:#ed9e5d;fill-rule:nonzero;"/><rect x="2252.92" y="2336.34" width="83.458" height="83.442" style="fill:#ed9e5d;fill-rule:nonzero;"/><rect x="917.833" y="2336.34" width="83.458" height="83.442" style="fill:#ed9e5d;fill-rule:nonzero;"/><rect x="333.792" y="2336.33" width="83.417" height="83.442" style="fill:#ed9e5d;fill-rule:nonzero;"/><rect x="166.917" y="2252.89" width="83.417" height="83.438" style="fill:#ed9e5d;fill-rule:nonzero;"/><rect x="166.917" y="2086.02" width="83.417" height="83.442" style="fill:#ed9e5d;fill-rule:nonzero;"/><rect x="166.917" y="1668.81" width="83.417" height="83.442" style="fill:#ed9e5d;fill-rule:nonzero;"/><rect x="166.917" y="1585.36" width="83.417" height="83.442" style="fill:#ed9e5d;fill-rule:nonzero;"/><rect x="166.917" y="667.546" width="83.417" height="83.438" style="fill:#ed9e5d;fill-rule:nonzero;"/><rect x="166.917" y="584.104" width="83.417" height="83.442" style="fill:#ed9e5d;fill-rule:nonzero;"/><rect x="166.917" y="500.658" width="83.417" height="83.446" style="fill:#ed9e5d;fill-rule:nonzero;"/><path d="M917.833,2336.34l0,83.442l-500.583,0l0,-83.442l500.583,0Zm417.209,0l-0,83.442l-333.75,0l-0,-83.442l333.75,0Zm917.875,0l-0,83.442l-250.334,0l0,-0.012l-83.416,-0l-0,0.012l-333.792,0l-0,-83.442l667.542,0Zm1084.71,0l-0,83.442l-417.208,0l-0,-83.442l417.208,0Zm-500.667,0l0,83.442l-500.583,0l-0,-83.442l500.583,0Zm667.542,-83.449l83.458,-0l0,166.879l-166.875,-0l0,-83.43l83.417,0l-0,-0.012l-83.417,0l0,-166.871l83.417,0l-0,83.434Zm-3254.17,-83.434l83.458,0l-0,83.434l-83.458,-0l-0,0.008l83.458,-0l-0,83.429l-83.458,0l-0,0.004l83.458,0l-0,83.438l-166.875,-0l-0,-250.321l83.417,-0l-0,0.008Zm1752.25,166.871l-83.416,0l-0,-83.429l83.416,-0l0,83.429Zm-1501.92,-166.871l-0,83.442l-83.417,-0l0,-83.442l83.417,0Zm-250.333,-83.442l-83.417,0l-0,-250.329l-83.459,0l0,-83.441l166.876,-0l-0,333.77Zm3254.17,-83.445l83.458,-0l0,83.441l-83.458,0l-0,-0.004l-83.417,0l0,0.008l-83.458,0l-0,-83.441l166.875,-0l-0,-0.004Zm-3254.17,-417.209l-83.417,0l-0,-166.837l83.417,-0l-0,166.837Zm3254.17,-166.87l83.458,-0l0,83.437l-83.458,0l-0,0.037l-83.417,0l0,-250.278l83.417,-0l-0,166.804Zm-3254.17,-0.017l-83.417,-0l-0,-166.787l83.417,-0l-0,166.787Zm83.458,-250.229l-0,83.442l-83.417,-0l-0,-83.442l83.417,-0Zm3170.71,83.395l-83.417,0l0,-250.233l83.417,0l-0,250.233Zm-3254.17,0l-83.417,0l-0,-166.791l83.417,0l-0,166.791Zm250.333,-250.233l-0,83.442l-83.417,0l0,-83.442l83.417,0Zm-83.459,83.442l-166.833,0l-0,-83.442l166.833,0l0,83.442Zm-166.874,-0.046l-83.417,0l-0,-166.792l83.417,0l-0,166.792Zm3254.17,-834.471l83.458,0l0,83.442l-83.458,-0l-0,83.433l83.458,0l0,83.438l-83.458,-0l-0,166.879l83.458,-0l0,166.879l-83.458,-0l-0,166.959l-83.417,-0l0,-83.396l-83.458,-0l-0,-83.442l83.458,0l0,-83.396l-166.916,0l0,-83.442l166.916,0l0,-417.166l83.417,-0l-0,-0.188Zm-3254.17,667.634l-83.417,-0l-0,-83.396l83.417,-0l-0,83.396Zm-0,-166.984l-0,83.446l-83.417,-0l-0,-83.446l83.417,0Zm3254.17,0.146l-83.417,0l0,-0.05l83.417,-0l-0,0.05Zm-3170.71,-83.587l-0,83.445l-83.417,0l-0,-83.445l83.417,-0Zm-83.458,-250.326l-0,83.442l-83.417,0l-0,-83.442l83.417,0Zm-0,-0.008l-83.417,0l-0,-83.433l83.417,-0l-0,83.433Zm-0,-83.445l-83.417,-0l-0,-83.43l83.417,0l-0,83.43Zm584.083,-166.872l-0,83.442l-83.459,0l0,-83.442l83.459,0Zm-500.625,0l-0,83.442l-83.458,0l-0,-83.442l83.458,0Zm2753.5,0l-0,83.442l-83.458,0l-0,-83.442l83.458,0Zm500.666,83.434l-83.458,0l-0,0.008l-83.417,0l0,-83.442l83.417,0l-0,-0.008l-83.417,0l0,0.008l-166.916,0l0,-83.445l166.916,-0l0,-0.004l166.875,-0l0,166.883Zm-3003.83,-166.879l0,83.445l-166.875,0l0,-83.445l166.875,-0Zm2419.71,-0l-0,83.445l-667.459,0l-0,-83.445l667.459,-0Zm-834.375,-0l-0,83.445l-500.626,0l0,-83.445l500.626,-0Zm-1335.04,-0l750.958,-0l-0,83.445l-750.958,0l-0,-0.008l-83.417,0l-0,-83.441l83.417,-0l-0,0.004Zm-83.459,-0l0,83.445l-83.375,0l0,-83.445l83.375,-0Zm2336.33,-0l83.458,-0l0,83.445l-83.458,0l-0,-0.008l-83.417,0l0,-83.441l83.417,-0l-0,0.004Zm-2670.08,-0.004l0,83.441l-250.291,0l-0,-83.441l250.291,-0Zm3170.75,1835.69l-83.458,-0l-0,83.438l-83.417,-0l0,-417.205l83.417,0l-0,83.446l83.458,-0l0,250.321Z" style="fill:#ed9e5d;fill-rule:nonzero;"/><path d="M3671.38,2503.21l-750.958,0l-0,-83.429l-83.417,0l0,83.429l-1335.04,0l0,-83.429l83.417,0l-0,-0.012l667.542,-0l-0,-83.43l83.458,0l-0,83.43l-83.458,-0l-0,0.012l83.458,0l-0,-0.012l500.583,-0l0,-83.43l83.459,0l-0,83.43l417.208,-0l-0,-83.43l83.458,0l0,83.43l-83.458,-0l-0,0.012l83.458,0l0,-0.012l166.875,-0l0,-166.879l83.417,-0l0,250.32Zm-3504.46,-417.196l83.417,0l-0,83.442l-83.417,0l-0,250.313l166.875,-0l-0,-83.43l83.416,0l0,-0.012l-83.416,0l-0,-83.429l83.458,-0l0,83.441l-0.042,0l0,83.43l500.625,-0l0,-83.43l83.459,0l-0,83.43l333.75,-0l-0,-83.43l250.333,0l-0,83.43l-83.417,-0l0,0.012l-166.874,0l-0,83.429l-333.792,0l-0,-83.429l-83.417,0l0,83.429l-834.417,0l0,-333.762l83.459,-0l-0,-83.434Zm2670.04,333.755l0,0.012l0.042,0l0,-0.012l-0.042,-0Zm-1501.92,-0l-0,0.012l0.042,0l-0,-0.012l-0.042,-0Zm-417.209,-0l0,0.012l0.042,0l0,-0.012l-0.042,-0Zm2419.79,-250.313l-0,83.442l-83.458,-0l0,-83.442l83.458,0Zm250.333,83.434l-83.458,-0l-0,-83.434l-83.417,0l0,-83.442l83.417,0l-0,-0.004l83.458,0l0,166.88Zm-3421.04,-166.88l-83.459,0l0,-250.321l83.459,0l-0,250.321Zm3504.46,-83.441l0,83.441l-83.417,0l0,-83.441l83.417,-0Zm-83.417,-83.442l0,83.442l-83.458,-0l-0,-83.442l83.458,-0Zm-83.458,-417.2l83.458,0l0,83.442l83.417,-0l0,333.758l-83.417,-0l0,-250.321l-83.458,-0l-0,-83.446l-83.417,0l0,-83.441l83.417,-0l-0,0.008Zm-3421.04,250.321l0,83.441l-83.458,0l-0,-83.441l83.458,-0Zm0,-333.738l83.459,0l-0,166.85l83.417,0l-0,83.442l-83.417,-0l-0,0.004l83.417,-0l-0,-0.004l83.458,-0l-0,83.442l-83.458,-0l-0,0.004l-166.876,-0l0,-333.738Zm3504.5,-0.02l83.417,-0l0,83.437l-83.417,0l0,-83.429l-83.458,-0l-0,-584.092l83.458,0l0,584.084Zm-3421.04,-0l-83.459,-0l0,-166.863l83.459,0l-0,166.863Zm-0,-250.309l-0,83.442l-83.459,0l0,-83.442l83.459,0Zm-0,-83.441l-0,83.437l-83.459,-0l0,-83.437l83.459,-0Zm-0,-0.005l-83.459,0l0,-166.866l83.459,-0l-0,166.866Zm-0,-166.883l-83.459,-0l0,-83.425l83.459,-0l-0,83.425Zm83.417,-166.871l-83.417,0l-0,83.421l-83.459,-0l0,-83.438l83.459,0l-0,-250.308l83.417,0l-0,250.325Zm3421.04,83.421l-83.417,-0l0,-166.879l83.417,-0l0,166.879Zm-83.417,-166.879l-83.458,-0l-0,-166.879l83.458,-0l0,166.879Zm-3421.04,-250.317l-0,83.438l-83.459,-0l0,-83.438l83.459,0Zm3504.46,0l0,83.438l-83.417,-0l0,-83.438l83.417,0Zm-3337.58,-83.433l-0,83.441l-83.458,0l-0,-83.441l83.458,-0Zm3254.17,-83.442l83.417,0l0,83.442l-83.417,-0l0,83.433l-83.458,0l-0,-83.445l83.458,-0l0,-83.43Zm-3504.5,-250.329l1501.92,0l-0,83.438l-1418.46,-0l-0,83.441l83.417,0l-0,83.442l-83.417,0l-0,83.438l-83.459,-0l0,-333.759Zm3170.71,166.887l0,83.442l-83.417,0l0,-83.442l83.417,0Zm-2836.92,0l0,83.442l-83.458,0l-0,-83.442l83.458,0Zm2836.96,-0.008l-83.459,0l0,-83.441l83.459,-0l-0,-83.438l166.874,0l0,-0.004l83.417,0l-0,0.004l166.875,0l0,250.321l-83.417,0l0,-166.883l-333.749,-0l-0,83.441Zm-917.834,-83.437l-0,83.445l-166.916,0l-0,-83.445l166.916,-0Zm-1668.79,-0l0,83.445l-83.458,0l0,-83.445l83.458,-0Zm1001.25,-0l0,83.445l-83.458,0l-0,-83.445l83.458,-0Zm500.626,-83.442l-0,83.438l-500.626,-0l0,-83.438l500.626,0Zm83.458,83.438l-0,-83.438l917.833,0l0,83.438l-917.833,-0Z" style="fill:#aa6130;fill-rule:nonzero;"/></g></svg>