<svg width="300" height="80" viewBox="0 0 300 80" fill="none" xmlns="http://www.w3.org/2000/svg">
<path d="M60.3066 5.85526V12.4795C60.3066 13.5613 59.5417 14.329 58.464 14.329H51.8643C50.7924 14.329 50.0218 13.5613 50.0218 12.4795V5.85526C50.0218 4.77933 50.7866 4.0058 51.8643 4.0058H58.464C59.5417 4.0058 60.3066 4.77933 60.3066 5.85526ZM212.214 23.1051C197.335 23.1051 185.978 34.1901 185.978 48.8228C185.978 63.7579 197.335 75 212.214 75C227.094 75 238.451 63.7579 238.451 48.8228C238.451 34.1959 227.094 23.1051 212.214 23.1051ZM212.214 66.2239C202.7 66.2239 195.643 58.6749 195.643 48.8228C195.643 39.1161 202.7 31.8812 212.214 31.8812C221.729 31.8812 228.786 39.1161 228.786 48.8228C228.78 58.6807 221.723 66.2239 212.214 66.2239ZM180.311 48.8228C180.311 63.7579 169.111 75 154.075 75C147.325 75 141.496 71.7664 137.503 67.451V71.9176C137.503 72.9935 136.582 73.9183 135.51 73.9183H130.139C129.067 73.9183 128.146 72.9935 128.146 71.9176V5.84944C128.146 4.77351 128.911 4 129.832 4H135.817C136.739 4 137.503 4.77351 137.503 5.84944V30.183C141.49 26.0247 147.475 23.1051 154.075 23.1051C169.111 23.1051 180.311 34.1959 180.311 48.8228ZM170.797 48.8228C170.797 39.1161 163.583 31.8812 154.075 31.8812C144.561 31.8812 137.503 39.1161 137.503 48.8228C137.503 58.6807 144.561 66.2239 154.075 66.2239C163.589 66.2239 170.797 58.6807 170.797 48.8228ZM121.546 48.8228C121.546 63.7579 110.195 75 95.159 75C88.4087 75 82.5797 71.7664 78.7439 67.451V71.9176C78.7439 72.9935 77.8226 73.9183 76.7507 73.9183H71.2287C70.151 73.9183 69.2355 72.9935 69.2355 71.9176V5.84944C69.2355 4.77351 70.0004 4 71.0781 4H76.9071C77.979 4 78.7497 4.77351 78.7497 5.84944V30.183C82.7419 26.0247 88.7216 23.1051 95.1648 23.1051C110.195 23.1051 121.546 34.1959 121.546 48.8228ZM111.881 48.8228C111.881 39.1161 104.824 31.8812 95.159 31.8812C85.8013 31.8812 78.7439 39.1161 78.7439 48.8228C78.7439 58.6807 85.8013 66.2239 95.159 66.2239C104.824 66.2239 111.881 58.6807 111.881 48.8228ZM58.1801 24.181H52.1946C51.2733 24.181 50.5085 24.9545 50.5085 26.0305V72.0746C50.5085 73.1564 51.2733 73.9241 52.1946 73.9241H58.1801C59.1014 73.9241 59.8662 73.1564 59.8662 72.0746V26.0305C59.8662 24.9545 59.1014 24.181 58.1801 24.181ZM296.909 41.5297C296.909 40.006 296.173 38.5811 294.939 37.6971L276.247 24.3206C273.002 22.0001 268.633 21.9943 265.383 24.309L254.101 32.3349V25.949C254.101 24.9778 253.313 24.1868 252.345 24.1868H246.482C245.514 24.1868 244.726 24.9778 244.726 25.949V72.1619C244.726 73.1331 245.514 73.9241 246.482 73.9241H252.345C253.313 73.9241 254.101 73.1331 254.101 72.1619V43.8793L270.8 31.9917L287.522 43.9549V45.9033H287.517V72.1619C287.517 73.1331 288.305 73.9241 289.272 73.9241H295.136C296.104 73.9241 296.892 73.1331 296.892 72.1619V57.0697H296.903V41.5297H296.909ZM31.6366 24.3148C28.3803 21.9884 23.9998 21.9768 20.7318 24.3031L9.40986 32.3581V25.9432C9.40986 24.9662 8.62184 24.1752 7.6484 24.1752H1.76144C0.788006 24.1752 0 24.9662 0 25.9432V72.1502C0 73.1273 0.788006 73.9183 1.76144 73.9183H7.6484C8.62184 73.9183 9.40986 73.1273 9.40986 72.1502V43.9433L26.1726 32.0092L37.6626 40.2328C38.4565 40.8028 39.5574 40.6166 40.1194 39.8199L43.538 35.0043C44.1058 34.2076 43.9204 33.1025 43.1266 32.5384L31.6366 24.3148Z" fill="#363B3D"/>
</svg>
