<?xml version="1.0" encoding="UTF-8" standalone="no"?><!DOCTYPE svg PUBLIC "-//W3C//DTD SVG 1.1//EN" "http://www.w3.org/Graphics/SVG/1.1/DTD/svg11.dtd"><svg width="100%" height="100%" viewBox="0 0 496 461" version="1.1" xmlns="http://www.w3.org/2000/svg" xmlns:xlink="http://www.w3.org/1999/xlink" xml:space="preserve" xmlns:serif="http://www.serif.com/" style="fill-rule:evenodd;clip-rule:evenodd;stroke-linejoin:round;stroke-miterlimit:2;"><g><g><path d="M44.921,209.314c0,6.048 -2.303,11.519 -6.623,15.838c-4.319,4.319 -9.79,6.623 -15.837,6.623c-6.047,0 -11.519,-2.304 -15.838,-6.623c-4.319,-4.319 -6.623,-9.79 -6.623,-15.838c-0,-6.047 2.304,-11.518 6.623,-15.837c4.319,-4.32 9.791,-6.623 15.838,-6.623c6.047,-0 11.518,2.303 15.837,6.623c4.608,4.319 6.623,9.502 6.623,15.837Zm-22.172,-17.565c-4.896,0 -8.927,1.728 -12.383,5.183c-3.455,3.456 -5.183,7.487 -5.183,12.382c0,4.896 1.728,8.927 5.183,12.383c3.456,3.455 7.487,5.183 12.383,5.183c4.895,-0 8.926,-1.728 12.382,-5.183c3.455,-3.456 5.183,-7.487 5.183,-12.383c0,-4.895 -1.728,-8.926 -5.183,-12.382c-3.744,-3.455 -7.775,-5.183 -12.382,-5.183Z" style="fill:#1a254f;fill-rule:nonzero;"/><path d="M92.147,229.184c-0,0.863 -0.288,1.151 -0.864,1.727c-0.576,0.576 -1.152,0.864 -1.728,0.864c-0.864,0 -1.152,-0.288 -1.728,-0.864c-0.576,-0.576 -0.864,-1.152 -0.864,-1.727l0,-4.608c-4.895,4.895 -10.366,7.199 -15.837,7.199c-5.76,0 -10.655,-2.016 -14.686,-6.047c-4.032,-4.031 -6.047,-9.215 -6.047,-14.974l-0,-21.597c-0,-0.863 0.288,-1.151 0.863,-1.727c0.576,-0.576 1.152,-0.864 1.728,-0.864c0.864,-0 1.152,0.288 1.728,0.864c0.576,0.576 0.864,1.151 0.864,1.727l-0,21.597c-0,4.32 1.44,8.063 4.607,11.231c3.168,3.167 6.911,4.607 11.231,4.607c4.319,-0 8.062,-1.44 11.23,-4.607c3.167,-3.168 4.607,-6.911 4.607,-11.231l0,-21.597c0,-0.863 0.288,-1.151 0.864,-1.727c0.576,-0.576 1.152,-0.864 1.728,-0.864c0.864,-0 1.152,0.288 1.728,0.864c0.576,0.576 0.863,1.151 0.863,1.727l-0.287,40.027Z" style="fill:#1a254f;fill-rule:nonzero;"/><path d="M99.921,189.445c0,-0.864 0.288,-1.151 0.864,-1.727c0.576,-0.576 1.152,-0.864 1.728,-0.864c0.864,-0 1.152,0.288 1.728,0.864c0.576,0.576 0.864,1.151 0.864,1.727l-0,5.76c5.471,-5.472 11.23,-8.063 17.565,-8.063c3.456,-0 6.047,0.576 8.639,1.439c0.288,0.288 0.864,0.288 1.152,0.864c0.288,0.288 0.863,1.152 0.863,1.728c0,0.576 -0.287,1.152 -0.863,1.728c-0.576,0.576 -1.152,0.864 -1.728,0.864c-0.288,-0 -0.864,-0 -1.152,-0.288c-2.016,-0.864 -4.031,-1.44 -6.911,-1.44c-4.895,-0 -8.927,1.728 -12.382,5.183c-3.456,3.456 -5.183,7.487 -5.183,12.382l-0,19.869c-0,0.864 -0.288,1.152 -0.864,1.728c-0.576,0.576 -1.152,0.864 -1.728,0.864c-0.864,0 -1.152,-0.288 -1.728,-0.864c-0.576,-0.576 -0.864,-1.152 -0.864,-1.728l0,-40.026Z" style="fill:#1a254f;fill-rule:nonzero;"/></g><g><path d="M76.758,268.032c-16.501,0 -22.002,9.901 -20.902,25.302l15.402,0c4.4,0 8.25,3.851 7.7,7.701c0,4.4 -3.85,8.25 -7.7,8.25l-15.402,0l0,57.205c0,2.2 -1.1,3.85 -2.2,5.5c-4.95,4.95 -13.751,1.65 -13.751,-5.5l0,-57.205l-3.85,0c-7.151,0 -10.451,-8.8 -6.051,-13.751c2.201,-2.75 6.051,-2.2 9.351,-2.2c-1.1,-25.852 10.451,-41.253 36.853,-41.253c2.2,0 3.85,0.55 5.5,2.2c5.501,4.951 1.65,14.301 -4.95,13.751Z" style="fill:#1a254f;fill-rule:nonzero;"/><path d="M151.013,366.49l0,-1.65c-41.803,33.002 -94.607,-25.852 -57.204,-63.805c25.302,-27.502 74.806,-6.601 73.156,30.252l-0,35.203c-0,10.45 -15.952,10.45 -15.952,-0Zm-26.402,-61.605c-35.202,0.55 -35.202,53.354 0,53.904c35.203,-0.55 35.203,-53.904 0,-53.904Z" style="fill:#1a254f;fill-rule:nonzero;"/><path d="M302.274,366.49c0,7.15 -8.8,11 -13.751,6.05c-1.65,-1.65 -2.2,-3.3 -2.2,-6.05l0,-43.454c0,-2.2 -0.55,-4.95 -1.65,-7.15c-4.4,-11.551 -20.901,-14.851 -29.702,-6.051c-3.3,3.301 -5.5,8.251 -5.5,12.651l-0,43.454c-0,11 -15.952,11 -15.952,-0l0,-43.454c0,-4.95 -1.65,-9.35 -5.5,-12.651c-11.001,-11.55 -30.802,-3.3 -30.802,12.651l-0,43.454c-0,2.2 -0.55,4.4 -2.2,6.05c-4.951,4.95 -14.301,1.1 -13.751,-6.05l-0,-69.856c-0,-8.8 13.201,-11 15.401,-2.75c13.751,-9.35 34.652,-6.6 44.553,6.601c16.501,-19.802 47.854,-14.301 57.754,8.8c1.65,4.401 2.75,8.801 2.75,13.201l0.55,44.554Z" style="fill:#1a254f;fill-rule:nonzero;"/><path d="M336.927,273.533c-0.55,12.651 -18.151,12.651 -18.701,-0c-0,-8.251 10.45,-12.651 15.951,-6.601c1.65,1.65 2.75,3.851 2.75,6.601Zm-17.601,92.957l-0,-69.855c0.55,-11.001 15.401,-11.001 15.951,-0l-0,69.855c-0,2.2 -0.55,4.4 -2.2,6.05c-4.951,4.95 -13.751,1.1 -13.751,-6.05Z" style="fill:#1a254f;fill-rule:nonzero;"/><path d="M352.328,366.49l0,-106.158c0,-2.2 0.55,-4.4 2.2,-6.051c4.951,-4.95 14.301,-1.65 13.751,6.051l0,98.457l3.851,0c10.45,0.55 10.45,15.401 -0,15.951l-11.551,0c-2.2,0 -3.851,-0.55 -5.501,-2.2c-2.2,-1.65 -2.75,-3.85 -2.75,-6.05Z" style="fill:#1a254f;fill-rule:nonzero;"/><path d="M410.632,366.49l-27.502,-66.005c-1.65,-3.3 -0.55,-6.601 1.651,-9.351c2.75,-2.75 7.15,-3.3 9.9,-1.1c1.65,0.55 2.2,2.2 3.3,3.85l21.452,51.154l21.452,-51.154c2.2,-7.15 12.101,-6.6 14.851,0c1.1,2.2 1.1,4.401 -0,6.601l-44.003,105.608c-4.401,10.45 -19.252,3.85 -14.852,-6.601l13.751,-33.002Z" style="fill:#1a254f;fill-rule:nonzero;"/></g><g><path d="M150.832,413.935c1.494,-1.495 3.886,-0.598 4.483,1.195l11.358,33.775l11.358,-34.373c0,-0.298 0.299,-0.597 0.598,-0.896c2.092,-2.093 5.38,-0 4.184,2.989l-13.749,41.247c-0.597,1.793 -3.287,2.391 -4.184,0.896c-0.299,-0.298 -0.299,-0.597 -0.598,-0.896l-11.358,-34.373l-11.657,34.672c-0.597,1.793 -2.989,2.092 -4.184,0.896c-0.299,-0.299 -0.299,-0.597 -0.598,-0.896l-13.749,-41.247c-1.195,-3.288 3.288,-5.381 4.782,-2.093l11.358,34.373l11.358,-33.775c0,-0.598 0,-1.195 0.598,-1.494Z" style="fill:#1a254f;fill-rule:nonzero;"/><path d="M195.367,401.979c-0,4.483 -6.875,4.483 -6.875,-0c0,-4.483 6.875,-4.185 6.875,-0Zm-5.978,14.048c0,-3.288 5.081,-3.587 5.081,-0l0,41.546c0,3.288 -5.081,3.587 -5.081,-0l0,-41.546Z" style="fill:#1a254f;fill-rule:nonzero;"/><path d="M239.005,454.584c3.288,-0 3.587,5.081 0,5.081l-34.372,0c-2.093,0 -3.288,-2.391 -2.093,-4.184l31.085,-37.362l-28.992,0c-0.897,0 -1.196,-0.299 -1.794,-0.897c-1.793,-1.494 -0.299,-4.483 1.794,-4.483l34.372,0c2.391,0 3.288,2.69 2.092,4.185l-31.084,37.062l28.992,0l0,0.598Z" style="fill:#1a254f;fill-rule:nonzero;"/><path d="M283.839,451.296c-5.679,5.679 -11.657,8.369 -18.232,8.369c-12.554,0.299 -23.613,-10.76 -23.314,-23.313c-0,-6.277 2.391,-11.956 6.874,-16.44c8.668,-8.966 24.211,-8.966 32.879,0c4.483,4.484 6.874,10.163 6.874,16.44l0,20.623c0,3.288 -5.081,3.587 -5.081,0c-0,0.299 -0,-5.679 -0,-5.679Zm-18.232,-32.878c-9.864,-0.299 -18.233,8.369 -18.233,18.232c-0.299,16.141 19.727,24.211 30.786,12.853c7.173,-6.875 7.173,-18.83 -0,-25.705c-3.288,-3.587 -7.472,-5.38 -12.553,-5.38Z" style="fill:#1a254f;fill-rule:nonzero;"/><path d="M296.99,416.027c0,-3.587 5.081,-3.587 5.081,-0l0,5.978c7.772,-8.07 17.635,-10.462 26.901,-6.875c3.586,1.495 1.793,6.277 -1.794,5.081c-6.276,-2.989 -14.944,-1.494 -19.727,3.886c-3.586,3.587 -5.38,7.771 -5.38,12.852l0,20.624c0,2.391 -2.989,3.587 -4.483,1.793c-0.598,-0.598 -0.897,-1.195 -0.897,-1.793l0,-41.546l0.299,-0Z" style="fill:#1a254f;fill-rule:nonzero;"/><path d="M372.311,396.001c0,-3.288 5.081,-3.587 5.081,0l0,40.649c0,6.277 -2.391,11.956 -6.874,16.439c-14.646,14.646 -39.753,4.185 -39.753,-16.439c-0.299,-12.553 10.76,-23.612 23.314,-23.313c7.173,-0 13.45,3.288 18.232,8.369l0,-25.705Zm0,40.649c0.299,-9.863 -8.369,-18.232 -18.232,-18.232c-16.141,-0.299 -24.211,19.727 -12.853,30.786c6.875,7.173 18.83,7.173 25.705,-0c3.587,-3.288 5.38,-7.771 5.38,-12.554Z" style="fill:#1a254f;fill-rule:nonzero;"/></g></g><g><g><path d="M297.449,222.5c-7.084,-0.833 -14.584,-2.083 -21.667,-4.167c-17.083,-5.416 -30.417,-13.75 -39.583,-20.833c-2.084,-1.25 -3.75,-2.917 -5.417,-4.583c-17.083,-15.834 -26.667,-37.917 -25.833,-61.25c1.25,-15 6.666,-28.75 15.416,-40c0.417,-0.417 0.834,-0.834 1.25,-1.25l-0.416,0.416c-16.25,17.5 -25.834,41.25 -25.834,65.417c-0.416,23.75 8.75,46.25 25.834,62.5c8.333,7.917 20,13.333 30.833,17.083c23.333,7.5 50,6.667 73.333,-1.25c15.834,-5 29.584,-13.333 41.25,-25.416c-21.25,10 -45,15.833 -69.166,13.333Z" style="fill:#001f5f;fill-rule:nonzero;"/><path d="M213.282,60c-7.083,2.917 -13.75,7.083 -20.417,12.5c-14.166,18.333 -22.5,41.25 -22.5,65.833c0,59.167 48.334,107.5 107.5,107.5c18.75,0 36.25,-5 51.667,-13.333c-1.25,0.417 -2.5,0.833 -3.75,1.25c-23.333,7.5 -50,8.75 -73.333,1.25c-10.834,-3.75 -22.5,-9.167 -30.834,-17.083c-17.083,-16.25 -25.833,-38.75 -25.833,-62.5c0.417,-24.167 10,-47.5 25.833,-65.417l0.417,-0.417c14.583,-17.916 37.5,-30 61.667,-30c19.166,0 36.25,7.084 49.583,18.75l-0,-0.416c-19.167,-17.917 -45,-29.167 -73.333,-29.167c-16.667,0.417 -32.5,4.583 -46.667,11.25Z" style="fill:#0071ce;fill-rule:nonzero;"/><path d="M377.865,202.5c-1.666,1.25 -3.75,2.083 -5.416,2.917c-1.667,0.833 -3.75,1.666 -5.417,2.916c-4.583,2.084 -8.75,4.167 -13.333,5.834c-7.084,7.083 -15.417,13.333 -24.584,18.333c-15.416,8.333 -32.916,13.333 -51.666,13.333c-59.167,0 -107.5,-48.333 -107.5,-107.5c-0,-25 8.333,-47.916 22.5,-65.833l-0.417,0.417c-41.25,33.333 -55,100 -21.667,140.833l0,0.417c-43.75,-54.167 -35.833,-133.334 17.917,-177.5c45.417,-37.084 108.75,-37.084 154.167,-4.167l-0,-1.25c-0,-2.083 0.416,-4.583 0.416,-6.667c-20.833,-15.416 -46.666,-24.583 -75.416,-24.583c-71.25,0.417 -135,57.917 -135,131.667c-0,73.75 62.083,131.25 135.833,131.25c48.333,-0 88.333,-23.75 110.417,-60.834l-0.834,0.417Z" style="fill:#009bde;fill-rule:nonzero;"/><path d="M189.115,36.667c-54.166,43.75 -62.083,123.333 -18.333,177.083l-0,-0.417c-33.333,-41.25 -19.167,-107.916 22.083,-141.25c40,-32.916 104.584,-30 140.417,5.834c2.083,-5.417 3.333,-11.667 5,-17.084c0.417,-1.666 0.833,-3.75 1.25,-5.416c0.833,-3.75 1.667,-7.5 2.083,-11.667c0.834,-3.75 0.834,-7.917 1.25,-11.667c-45.416,-32.5 -108.333,-32.5 -153.75,4.584Z" style="fill:#001f5f;fill-rule:nonzero;"/></g><g><path d="M350.365,8.333c0,0.417 0,0.417 0,0c-1.666,27.084 -4.166,56.667 -15.833,81.25l0.417,0c18.333,-1.25 38.75,-3.333 60,-7.5c-2.084,-17.5 -17.5,-40 -44.584,-73.75Z" style="fill:#ffd100;fill-rule:nonzero;"/><path d="M372.032,180.417c19.167,21.666 34.167,27.5 75.417,43.333c-10.417,-19.583 -25.417,-53.75 -27.084,-77.917c-1.666,0.834 -46.25,32.917 -48.333,34.584Z" style="fill:#ffd100;fill-rule:nonzero;"/><path d="M495.365,56.667c-65.833,35 -188.333,47.083 -250.416,34.166c16.25,22.5 67.916,55 67.916,55c-13.75,33.75 -21.25,60 -26.666,87.084c57.083,-37.917 191.666,-128.75 209.166,-176.25Z" style="fill:#ffd100;fill-rule:nonzero;"/></g></g></svg>